<svg width="49" height="45" viewBox="0 0 49 45" fill="none" xmlns="http://www.w3.org/2000/svg">
<g filter="url(#filter0_d_49229_9)">
<path d="M30.1998 37C29.5521 36.9738 28.9404 36.6948 28.4961 36.2227C28.0518 35.7506 27.8103 35.1232 27.8234 34.475C27.8365 33.8269 28.1032 33.2097 28.5662 32.7559C29.0292 32.3022 29.6516 32.048 30.2999 32.048C30.9482 32.048 31.5706 32.3022 32.0336 32.7559C32.4966 33.2097 32.7633 33.8269 32.7764 34.475C32.7895 35.1232 32.5479 35.7506 32.1036 36.2227C31.6593 36.6948 31.0477 36.9738 30.3999 37H30.1998ZM10.7518 34.32C10.7518 33.79 10.909 33.2718 11.2035 32.8311C11.498 32.3904 11.9165 32.0469 12.4062 31.844C12.896 31.6412 13.4348 31.5881 13.9547 31.6915C14.4746 31.7949 14.9521 32.0502 15.3269 32.425C15.7017 32.7998 15.957 33.2773 16.0604 33.7972C16.1638 34.317 16.1107 34.8559 15.9078 35.3456C15.705 35.8353 15.3615 36.2539 14.9208 36.5483C14.4801 36.8428 13.9619 37 13.4319 37C13.0798 37.0003 12.731 36.9311 12.4056 36.7966C12.0803 36.662 11.7846 36.4646 11.5355 36.2158C11.2864 35.9669 11.0889 35.6713 10.9541 35.3461C10.8193 35.0208 10.7499 34.6721 10.7499 34.32H10.7518ZM14.5519 28.686C14.2924 28.6868 14.0398 28.6024 13.833 28.4457C13.6262 28.2891 13.4765 28.0689 13.4069 27.819L8.57385 10.364H5.18091C4.86742 10.364 4.56676 10.2395 4.34509 10.0178C4.12342 9.79614 3.9989 9.49549 3.9989 9.18201C3.9989 8.86852 4.12342 8.56787 4.34509 8.3462C4.56676 8.12454 4.86742 8.00001 5.18091 8.00001H9.46191C9.7214 7.99919 9.97394 8.08372 10.1807 8.24057C10.3874 8.39742 10.5367 8.61788 10.6058 8.86801L15.4388 26.323H28.6168L32.9999 16.275H18.3999C18.2417 16.2796 18.0843 16.2524 17.9368 16.1951C17.7893 16.1377 17.6548 16.0513 17.5413 15.9411C17.4277 15.8308 17.3375 15.6989 17.2759 15.5532C17.2143 15.4074 17.1825 15.2508 17.1825 15.0925C17.1825 14.9343 17.2143 14.7776 17.2759 14.6319C17.3375 14.4861 17.4277 14.3542 17.5413 14.2439C17.6548 14.1337 17.7893 14.0473 17.9368 13.9899C18.0843 13.9326 18.2417 13.9054 18.3999 13.91H34.8129C35.0086 13.91 35.2011 13.9587 35.3733 14.0517C35.5454 14.1448 35.6917 14.2793 35.7988 14.443C35.9067 14.6073 35.9723 14.7957 35.9897 14.9914C36.0072 15.1872 35.976 15.3842 35.8989 15.565L30.4939 27.977C30.4015 28.1876 30.2499 28.3668 30.0574 28.4927C29.8649 28.6186 29.6399 28.6858 29.4099 28.686H14.5519Z" fill="#E8E8E8"/>
</g>
<g filter="url(#filter1_d_49229_9)">
<path d="M35.4999 19C40.7466 19 44.9999 14.7467 44.9999 9.5C44.9999 4.25329 40.7466 0 35.4999 0C30.2532 0 25.9999 4.25329 25.9999 9.5C25.9999 14.7467 30.2532 19 35.4999 19Z" fill="#F16D7F"/>
</g>
<g filter="url(#filter2_d_49229_9)">
<path d="M34.8119 7.648C35.2599 7.552 35.6719 7.504 36.0479 7.504C36.4959 7.504 36.8919 7.57 37.2359 7.702C37.5799 7.834 37.8659 8.016 38.0939 8.248C38.3259 8.48 38.4999 8.754 38.6159 9.07C38.7359 9.386 38.7959 9.73 38.7959 10.102C38.7959 10.558 38.7159 10.97 38.5559 11.338C38.3999 11.706 38.1819 12.022 37.9019 12.286C37.6259 12.546 37.2999 12.746 36.9239 12.886C36.5479 13.026 36.1419 13.096 35.7059 13.096C35.4539 13.096 35.2119 13.07 34.9799 13.018C34.7479 12.97 34.5299 12.904 34.3259 12.82C34.1259 12.736 33.9399 12.64 33.7679 12.532C33.5959 12.424 33.4439 12.31 33.3119 12.19L33.6419 11.734C33.7139 11.63 33.8079 11.578 33.9239 11.578C34.0039 11.578 34.0939 11.61 34.1939 11.674C34.2939 11.734 34.4159 11.802 34.5599 11.878C34.7039 11.954 34.8719 12.024 35.0639 12.088C35.2599 12.148 35.4919 12.178 35.7599 12.178C36.0599 12.178 36.3299 12.13 36.5699 12.034C36.8099 11.938 37.0159 11.802 37.1879 11.626C37.3599 11.446 37.4919 11.232 37.5839 10.984C37.6759 10.736 37.7219 10.458 37.7219 10.15C37.7219 9.882 37.6819 9.64 37.6019 9.424C37.5259 9.208 37.4079 9.024 37.2479 8.872C37.0919 8.72 36.8959 8.602 36.6599 8.518C36.4239 8.434 36.1479 8.392 35.8319 8.392C35.6159 8.392 35.3899 8.41 35.1539 8.446C34.9219 8.482 34.6839 8.54 34.4399 8.62L33.7679 8.422L34.4579 4.402H38.5319V4.87C38.5319 5.022 38.4839 5.148 38.3879 5.248C38.2959 5.344 38.1359 5.392 37.9079 5.392H35.2079L34.8119 7.648Z" fill="white"/>
</g>
<defs>
<filter id="filter0_d_49229_9" x="-0.00109863" y="8" width="39.9955" height="37" filterUnits="userSpaceOnUse" color-interpolation-filters="sRGB">
<feFlood flood-opacity="0" result="BackgroundImageFix"/>
<feColorMatrix in="SourceAlpha" type="matrix" values="0 0 0 0 0 0 0 0 0 0 0 0 0 0 0 0 0 0 127 0" result="hardAlpha"/>
<feOffset dy="4"/>
<feGaussianBlur stdDeviation="2"/>
<feComposite in2="hardAlpha" operator="out"/>
<feColorMatrix type="matrix" values="0 0 0 0 0 0 0 0 0 0 0 0 0 0 0 0 0 0 0.25 0"/>
<feBlend mode="normal" in2="BackgroundImageFix" result="effect1_dropShadow_49229_9"/>
<feBlend mode="normal" in="SourceGraphic" in2="effect1_dropShadow_49229_9" result="shape"/>
</filter>
<filter id="filter1_d_49229_9" x="21.9999" y="0" width="27" height="27" filterUnits="userSpaceOnUse" color-interpolation-filters="sRGB">
<feFlood flood-opacity="0" result="BackgroundImageFix"/>
<feColorMatrix in="SourceAlpha" type="matrix" values="0 0 0 0 0 0 0 0 0 0 0 0 0 0 0 0 0 0 127 0" result="hardAlpha"/>
<feOffset dy="4"/>
<feGaussianBlur stdDeviation="2"/>
<feComposite in2="hardAlpha" operator="out"/>
<feColorMatrix type="matrix" values="0 0 0 0 0 0 0 0 0 0 0 0 0 0 0 0 0 0 0.25 0"/>
<feBlend mode="normal" in2="BackgroundImageFix" result="effect1_dropShadow_49229_9"/>
<feBlend mode="normal" in="SourceGraphic" in2="effect1_dropShadow_49229_9" result="shape"/>
</filter>
<filter id="filter2_d_49229_9" x="29.3119" y="4.4021" width="13.484" height="16.6938" filterUnits="userSpaceOnUse" color-interpolation-filters="sRGB">
<feFlood flood-opacity="0" result="BackgroundImageFix"/>
<feColorMatrix in="SourceAlpha" type="matrix" values="0 0 0 0 0 0 0 0 0 0 0 0 0 0 0 0 0 0 127 0" result="hardAlpha"/>
<feOffset dy="4"/>
<feGaussianBlur stdDeviation="2"/>
<feComposite in2="hardAlpha" operator="out"/>
<feColorMatrix type="matrix" values="0 0 0 0 0 0 0 0 0 0 0 0 0 0 0 0 0 0 0.25 0"/>
<feBlend mode="normal" in2="BackgroundImageFix" result="effect1_dropShadow_49229_9"/>
<feBlend mode="normal" in="SourceGraphic" in2="effect1_dropShadow_49229_9" result="shape"/>
</filter>
</defs>
</svg>
